HIERARCHY
ROOT joint_0
{
	OFFSET 0.000000 0.000000 0.000000
	CHANNELS 6 Xposition Yposition Zposition Zrotation Yrotation Xrotation 
	JOINT joint_1
	{
		OFFSET 14.113007 -2.961990 123.953979
		CHANNELS 3 Zrotation Yrotation Xrotation
		JOINT joint_2
		{
			OFFSET 0.764000 -2.434006 113.871948
			CHANNELS 3 Zrotation Yrotation Xrotation
			JOINT joint_3
			{
				OFFSET 0.186996 -2.169998 113.753052
				CHANNELS 3 Zrotation Yrotation Xrotation
				JOINT joint_4
				{
					OFFSET 16.096001 -2.720001 160.853027
					CHANNELS 3 Zrotation Yrotation Xrotation
					JOINT joint_5
					{
						OFFSET 34.392006 -0.188995 92.567017
						CHANNELS 3 Zrotation Yrotation Xrotation
						End Site
						{
							OFFSET 0.000000 0.000000 0.000000
						}
					}
				}
				JOINT joint_6
				{
					OFFSET 9.183998 -36.684006 89.597046
					CHANNELS 3 Zrotation Yrotation Xrotation
					JOINT joint_7
					{
						OFFSET 0.486000 -164.365997 -28.984009
						CHANNELS 3 Zrotation Yrotation Xrotation
						JOINT joint_8
						{
							OFFSET 38.899002 -34.967010 -291.651978
							CHANNELS 3 Zrotation Yrotation Xrotation
							JOINT joint_9
							{
								OFFSET 41.714005 -45.890991 -258.857056
								CHANNELS 3 Zrotation Yrotation Xrotation
								End Site
								{
									OFFSET 0.000000 0.000000 0.000000
								}
							}
						}
					}
				}
				JOINT joint_10
				{
					OFFSET 8.867004 33.650002 90.817993
					CHANNELS 3 Zrotation Yrotation Xrotation
					JOINT joint_11
					{
						OFFSET 0.018997 164.299999 -29.368042
						CHANNELS 3 Zrotation Yrotation Xrotation
						JOINT joint_12
						{
							OFFSET 29.440994 30.887997 -293.216919
							CHANNELS 3 Zrotation Yrotation Xrotation
							JOINT joint_13
							{
								OFFSET 46.174011 54.490005 -256.422058
								CHANNELS 3 Zrotation Yrotation Xrotation
								End Site
								{
									OFFSET 0.000000 0.000000 0.000000
								}
							}
						}
					}
				}
			}
		}
	}
	JOINT joint_14
	{
		OFFSET -2.264000 -89.466995 -116.150024
		CHANNELS 3 Zrotation Yrotation Xrotation
		JOINT joint_15
		{
			OFFSET -16.400993 -17.452988 -493.781982
			CHANNELS 3 Zrotation Yrotation Xrotation
			JOINT joint_16
			{
				OFFSET -50.497004 -13.404022 -424.754013
				CHANNELS 3 Zrotation Yrotation Xrotation
				JOINT joint_17
				{
					OFFSET 198.546007 -19.341003 -89.309000
					CHANNELS 3 Zrotation Yrotation Xrotation
					End Site
					{
						OFFSET 0.000000 0.000000 0.000000
					}
				}
			}
		}
	}
	JOINT joint_18
	{
		OFFSET -0.867996 96.016006 -110.817993
		CHANNELS 3 Zrotation Yrotation Xrotation
		JOINT joint_19
		{
			OFFSET -10.130997 24.658998 -493.645020
			CHANNELS 3 Zrotation Yrotation Xrotation
			JOINT joint_20
			{
				OFFSET -48.871004 19.434999 -424.714005
				CHANNELS 3 Zrotation Yrotation Xrotation
				JOINT joint_21
				{
					OFFSET 195.579996 24.926001 -94.327003
					CHANNELS 3 Zrotation Yrotation Xrotation
					End Site
					{
						OFFSET 0.000000 0.000000 0.000000
					}
				}
			}
		}
	}
}
MOTION
Frames: 16
Frame Time: 0.016667
-2718.092529 906.757202 1112.806030 4.501283 -6.318099 -2.303021 -0.333938 0.539108 3.754202 -0.265575 -0.051718 -0.763647 -0.251615 0.152242 0.604833 -0.915315 -1.715464 2.379069 0.000000 0.000000 0.000000 0.360835 2.014495 0.031195 -0.575388 2.177837 -1.205738 -0.665908 0.309603 -3.716607 0.000000 0.000000 0.000000 1.785675 1.666410 0.692249 0.253947 1.392845 -2.249612 0.758266 0.177648 4.194894 0.000000 0.000000 0.000000 4.717218 -9.710607 -6.013896 2.400477 15.349904 4.036300 3.755100 -0.652626 1.497588 0.000000 0.000000 0.000000 -6.834035 -12.271185 11.728816 -4.807739 56.910348 -8.369599 -15.132471 -2.384528 -5.589165 0.000000 0.000000 0.000000 
-2710.026611 909.836121 1116.191040 3.861497 -6.182766 -2.253896 -0.250655 0.428483 3.570800 -0.209086 -0.031670 -0.711441 -0.201015 0.107653 0.565909 -0.838120 -1.404731 2.188321 0.000000 0.000000 0.000000 0.132760 2.188390 -0.292178 -0.637655 2.325106 -1.169799 -0.831454 0.948802 -4.040612 0.000000 0.000000 0.000000 1.911266 1.956129 0.804718 0.164622 1.641675 -2.488274 0.547598 -0.385302 3.633684 0.000000 0.000000 0.000000 4.833080 -8.733928 -5.850664 2.743113 13.790716 3.561412 3.844475 -0.296509 1.580402 0.000000 0.000000 0.000000 -6.483870 -13.155176 11.729760 -4.611393 54.914942 -8.315651 -14.394547 -3.087320 -5.301266 0.000000 0.000000 0.000000 
-2702.257568 913.496399 1119.715942 3.119256 -5.973459 -2.197627 -0.149426 0.260845 3.355731 -0.140152 -0.012585 -0.649976 -0.138107 0.046140 0.524927 -0.745915 -1.157014 1.954739 0.000000 0.000000 0.000000 -0.136368 2.404182 -0.716047 -0.681090 2.503471 -1.160184 -0.907177 1.330783 -4.109188 0.000000 0.000000 0.000000 2.070577 2.316925 1.018966 0.030790 1.946830 -2.627306 0.214132 -1.355206 2.882942 0.000000 0.000000 0.000000 4.971782 -7.804901 -5.716162 3.145604 12.078316 3.025305 3.991221 0.175330 1.700103 0.000000 0.000000 0.000000 -6.277971 -13.798575 11.735721 -4.534178 51.994237 -8.521418 -13.954266 -3.575389 -5.161997 0.000000 0.000000 0.000000 
-2694.566650 917.637695 1122.635986 2.418840 -5.715316 -2.136707 -0.078062 0.082883 3.081348 -0.094701 0.013999 -0.577872 -0.098678 -0.016081 0.484727 -0.674630 -1.016788 1.772681 0.000000 0.000000 0.000000 -0.387740 2.624067 -1.170447 -0.714432 2.686141 -1.220432 -0.920327 1.492550 -4.036050 0.000000 0.000000 0.000000 2.223851 2.663775 1.285844 -0.109010 2.238578 -2.736474 -0.131451 -2.248694 1.994188 0.000000 0.000000 0.000000 5.097509 -7.006128 -5.673713 3.520045 10.534575 2.537565 4.154347 0.591973 1.821287 0.000000 0.000000 0.000000 -6.230314 -14.305583 11.688573 -4.589435 48.523617 -8.787065 -13.636975 -4.017629 -5.076111 0.000000 0.000000 0.000000 
-2686.938477 922.196045 1124.782959 1.843389 -5.388365 -2.068721 -0.062827 -0.115578 2.734944 -0.099328 0.061175 -0.516855 -0.110486 -0.083753 0.448799 -0.642564 -1.018402 1.691475 0.000000 0.000000 0.000000 -0.612467 2.846963 -1.659521 -0.734361 2.872650 -1.343568 -0.863718 1.399872 -3.805704 0.000000 0.000000 0.000000 2.363441 2.983486 1.645209 -0.247147 2.506932 -2.867534 -0.464167 -2.886147 0.884092 0.000000 0.000000 0.000000 5.188505 -6.343636 -5.731794 3.837519 9.170050 2.095729 4.301699 0.899513 1.925114 0.000000 0.000000 0.000000 -6.431900 -14.711638 11.604929 -4.884786 44.314588 -9.127805 -13.488168 -4.410782 -5.073282 0.000000 0.000000 0.000000 
-2679.387939 927.237488 1126.323975 1.270033 -5.029465 -2.028682 -0.066883 -0.291273 2.397265 -0.114170 0.098081 -0.477759 -0.130104 -0.154111 0.414144 -0.631076 -1.125141 1.663260 0.000000 0.000000 0.000000 -0.823554 3.071221 -2.166687 -0.745914 3.059656 -1.556917 -0.744686 1.096232 -3.411448 0.000000 0.000000 0.000000 2.501322 3.291804 2.054654 -0.393893 2.763721 -2.964510 -0.814771 -3.467450 -0.375486 0.000000 0.000000 0.000000 5.285795 -5.808479 -5.826028 4.135402 7.982905 1.695662 4.459501 1.134200 2.026153 0.000000 0.000000 0.000000 -6.776080 -14.862437 11.502837 -5.345368 39.304815 -9.388962 -13.288937 -4.468977 -5.100433 0.000000 0.000000 0.000000 
-2671.742676 932.861450 1127.022949 0.567728 -4.718631 -2.063476 -0.050699 -0.382872 2.161187 -0.095462 0.099534 -0.445515 -0.111177 -0.192045 0.379608 -0.619522 -1.278412 1.634314 0.000000 0.000000 0.000000 -0.976177 3.257600 -2.588814 -0.767941 3.218720 -1.945558 -0.610032 0.723276 -2.989201 0.000000 0.000000 0.000000 2.638564 3.543987 2.355645 -0.530200 2.967735 -2.949234 -1.148577 -4.063468 -1.517892 0.000000 0.000000 0.000000 5.428484 -5.497751 -5.926100 4.414541 7.298519 1.456566 4.660410 1.195535 2.126983 0.000000 0.000000 0.000000 -6.992990 -14.719901 11.306865 -5.694509 34.294272 -9.173928 -12.693387 -4.223480 -4.986099 0.000000 0.000000 0.000000 
-2663.675049 939.336487 1126.719971 -0.254136 -4.444712 -2.166260 -0.019350 -0.475401 2.005508 -0.054885 0.096587 -0.371687 -0.068275 -0.186159 0.345396 -0.598124 -1.457388 1.578787 0.000000 0.000000 0.000000 -1.042853 3.416513 -2.933765 -0.807083 3.365825 -2.564020 -0.454311 0.273673 -2.518776 0.000000 0.000000 0.000000 2.826383 3.761071 2.544744 -0.658853 3.130026 -2.850135 -1.470952 -4.757547 -2.489983 0.000000 0.000000 0.000000 5.592487 -5.431203 -6.074083 4.655329 7.176122 1.436534 4.897441 1.010487 2.217539 0.000000 0.000000 0.000000 -7.069590 -14.268837 10.865839 -5.890677 29.195787 -8.235282 -11.617115 -3.866659 -4.662990 0.000000 0.000000 0.000000 
-2655.514160 946.393982 1125.572998 -1.204868 -4.219058 -2.348445 0.038414 -0.492041 1.956821 0.017510 0.065992 -0.309257 0.008625 -0.149409 0.310630 -0.578857 -1.681759 1.528311 0.000000 0.000000 0.000000 -1.048291 3.537064 -3.181232 -0.853148 3.483601 -3.365563 -0.280904 -0.244020 -2.019289 0.000000 0.000000 0.000000 3.007599 3.923400 2.641484 -0.770535 3.242807 -2.651640 -1.769252 -5.460461 -3.343277 0.000000 0.000000 0.000000 5.794683 -5.602011 -6.215763 4.884204 7.568865 1.569070 5.181004 0.628176 2.306937 0.000000 0.000000 0.000000 -7.033856 -13.570761 10.317232 -5.993204 24.200335 -6.787650 -10.370656 -3.293668 -4.261068 0.000000 0.000000 0.000000 
-2648.069580 953.333435 1123.814941 -2.283319 -4.072735 -2.599671 0.145658 -0.304416 1.990218 0.140226 -0.004585 -0.309264 0.137062 -0.088065 0.272260 -0.575469 -1.954567 1.519753 0.000000 0.000000 0.000000 -1.028465 3.553254 -3.208722 -0.900111 3.499451 -4.245098 -0.150552 -0.674270 -1.699671 0.000000 0.000000 0.000000 3.020416 3.927091 2.551108 -0.826622 3.237513 -2.234056 -1.978304 -5.965320 -3.972676 0.000000 0.000000 0.000000 6.078397 -6.114251 -6.304841 5.123168 8.641889 1.810692 5.534718 0.086484 2.406820 0.000000 0.000000 0.000000 -6.767821 -13.048839 9.949585 -5.846961 21.038631 -5.516205 -9.368429 -2.982209 -3.883143 0.000000 0.000000 0.000000 
-2641.821533 959.953186 1121.240967 -3.428171 -3.981631 -2.844766 0.285094 0.076539 1.892629 0.293966 -0.067887 -0.293111 0.295451 0.002156 0.242141 -0.601830 -2.337143 1.591046 0.000000 0.000000 0.000000 -1.002621 3.411175 -2.921911 -0.958196 3.358020 -5.275034 -0.074461 -0.987807 -1.594659 0.000000 0.000000 0.000000 2.770831 3.715416 2.191543 -0.813454 3.075586 -1.441512 -2.097072 -6.216409 -4.437647 0.000000 0.000000 0.000000 6.444614 -7.105236 -6.406917 5.354350 10.609003 2.148627 5.963653 -0.667705 2.510993 0.000000 0.000000 0.000000 -6.200222 -13.138567 9.804883 -5.277716 21.197289 -4.903854 -8.785836 -3.992876 -3.481702 0.000000 0.000000 0.000000 
-2636.291016 966.453857 1118.055054 -4.568439 -3.925550 -3.034533 0.431393 0.563625 1.605730 0.452181 -0.119730 -0.224120 0.457619 0.110269 0.214661 -0.649431 -2.772216 1.721492 0.000000 0.000000 0.000000 -0.950506 3.169792 -2.429534 -1.021986 3.121692 -6.349241 -0.040905 -1.224959 -1.674563 0.000000 0.000000 0.000000 2.344870 3.353860 1.693951 -0.749367 2.803176 -0.434319 -2.134892 -6.257866 -4.709890 0.000000 0.000000 0.000000 6.848246 -8.431839 -6.595989 5.567634 13.222598 2.573793 6.449244 -1.502636 2.623213 0.000000 0.000000 0.000000 -5.470925 -13.573700 9.711086 -4.448755 23.367485 -4.689014 -8.436900 -5.925801 -3.048225 0.000000 0.000000 0.000000 
-2630.855469 972.732361 1115.100952 -5.588919 -3.868334 -3.130784 0.568242 1.039464 1.195754 0.590705 -0.178405 -0.149192 0.599814 0.212518 0.168201 -0.693564 -3.092137 1.845075 0.000000 0.000000 0.000000 -0.867730 2.938521 -1.956652 -1.062199 2.899488 -7.047336 -0.079798 -1.340719 -2.068608 0.000000 0.000000 0.000000 1.840440 2.918088 1.280641 -0.649408 2.475714 0.423164 -2.044916 -6.010952 -4.558510 0.000000 0.000000 0.000000 7.228838 -9.831638 -6.950415 5.762997 15.973860 3.092591 6.956503 -2.174078 2.754151 0.000000 0.000000 0.000000 -4.839237 -13.914840 9.576678 -3.699810 25.294921 -4.645418 -8.145205 -7.559605 -2.681776 0.000000 0.000000 0.000000 
-2625.292480 978.805237 1112.517944 -6.445023 -3.758108 -3.054343 0.696681 1.419927 0.584970 0.699887 -0.219417 -0.064048 0.710904 0.301249 0.089612 -0.731129 -3.258701 1.952180 0.000000 0.000000 0.000000 -0.728578 2.764459 -1.577338 -1.067287 2.743857 -7.154708 -0.231853 -1.297243 -2.986148 0.000000 0.000000 0.000000 1.255709 2.402933 1.012086 -0.511905 2.089017 1.013484 -1.787440 -5.350126 -3.866624 0.000000 0.000000 0.000000 7.578334 -11.366049 -7.638033 5.952749 18.920817 3.801001 7.528835 -2.660488 2.923323 0.000000 0.000000 0.000000 -4.417440 -14.052073 9.306343 -3.136390 26.247651 -4.796907 -7.852672 -8.586412 -2.403805 0.000000 0.000000 0.000000 
-2619.824219 984.655945 1110.166992 -7.150858 -3.632197 -2.853020 0.811586 1.781190 -0.207463 0.771323 -0.263947 0.059157 0.783112 0.382473 -0.007760 -0.764698 -3.316005 2.049226 0.000000 0.000000 0.000000 -0.558797 2.608878 -1.247079 -1.044231 2.612031 -6.853784 -0.454443 -1.144083 -4.234353 0.000000 0.000000 0.000000 0.600923 1.806365 0.814485 -0.338180 1.639652 1.479854 -1.399472 -4.359211 -2.772368 0.000000 0.000000 0.000000 7.887561 -12.974502 -8.537754 6.141099 21.989377 4.594320 8.150562 -2.911001 3.127439 0.000000 0.000000 0.000000 -4.114004 -14.119563 8.947042 -2.655410 26.993843 -5.141205 -7.621644 -9.374202 -2.186398 0.000000 0.000000 0.000000 
-2614.497070 990.131958 1108.470947 -7.672287 -3.528257 -2.688501 0.878082 2.122048 -0.937400 0.781913 -0.321720 0.195408 0.793554 0.445399 -0.105702 -0.773030 -3.214076 2.076572 0.000000 0.000000 0.000000 -0.424210 2.455947 -1.031601 -0.990076 2.475817 -6.299859 -0.655218 -0.967315 -5.343330 0.000000 0.000000 0.000000 0.008822 1.204245 0.680610 -0.144379 1.177325 1.839142 -0.940929 -3.267010 -1.403028 0.000000 0.000000 0.000000 8.094677 -14.302173 -9.319375 6.285657 24.557157 5.247075 8.663811 -2.848708 3.315423 0.000000 0.000000 0.000000 -3.901883 -14.167503 8.640893 -2.279068 27.646636 -5.496287 -7.470471 -9.966061 -2.031383 0.000000 0.000000 0.000000 
